# xmcd
#
# Track frame offsets: 
#        150
#        14167
#        23277
#        43720
#        55460
#        64702
#        75030
#        90810
#        106745
#        118717
#
# Disc length: 1720 seconds
#
# Revision: 2
# Processed by: cddbd v1.5.2PL0 Copyright (c) Steve Scherf et al.
# Submitted via: ExactAudioCopyFreeDBPlugin 1.0
#
DISCID=6806b60a
DTITLE=Various Artist - Riding the Rails:  Great American Train Songs
DTITLE=(Volume 1) [McMinnville Records]
DYEAR=2005
DGENRE=Trains
TTITLE0=Merle Travis - John Henry
TTITLE1=The Osborne Brothers and Mac Wiseman - Midnight Flyer
TTITLE2=Merle Travis and Mac Wiseman - In the Pines
TTITLE3=Grandpa Jones - Cannonball Blues
TTITLE4=Jim and Jesse - Midnight Train
TTITLE5=Don Reno and Bill Harrrell - Bringin' in the Georgia Mail
TTITLE6=Lester Flatt and The Nashville Grass - Bummin' an Old Freight 
TTITLE6=Train
TTITLE7=Donna Stoneman - Orange Blossom Special
TTITLE8=Tommy Faile - Folsom Prison Blues
TTITLE9=Mac Wiseman - Train 45
EXTD=ID3G:   2
EXTT0=
EXTT1=
EXTT2=
EXTT3=
EXTT4=
EXTT5=
EXTT6=
EXTT7=
EXTT8=
EXTT9=
PLAYORDER=
